<svg width="31" height="32" viewBox="0 0 31 32" fill="none" xmlns="http://www.w3.org/2000/svg">
<path d="M10.6895 25.156C10.6895 25.28 10.5547 25.3793 10.3848 25.3793C10.1914 25.3979 10.0566 25.2986 10.0566 25.156C10.0566 25.0319 10.1914 24.9326 10.3613 24.9326C10.5371 24.914 10.6895 25.0133 10.6895 25.156ZM8.86719 24.8768C8.82617 25.0009 8.94336 25.1435 9.11914 25.1808C9.27148 25.2428 9.44727 25.1808 9.48242 25.0567C9.51758 24.9326 9.40625 24.79 9.23047 24.7341C9.07813 24.6907 8.9082 24.7527 8.86719 24.8768ZM11.457 24.7713C11.2871 24.8148 11.1699 24.9326 11.1875 25.0753C11.2051 25.1994 11.3574 25.28 11.5332 25.2366C11.7031 25.1932 11.8203 25.0753 11.8027 24.9512C11.7852 24.8334 11.627 24.7527 11.457 24.7713ZM15.3125 1C7.18555 1 0.96875 7.53216 0.96875 16.1362C0.96875 23.0158 5.05859 28.9028 10.9004 30.9747C11.6504 31.1174 11.9141 30.6273 11.9141 30.2241C11.9141 29.8395 11.8965 27.718 11.8965 26.4152C11.8965 26.4152 7.79492 27.3457 6.93359 24.5666C6.93359 24.5666 6.26562 22.7615 5.30469 22.2962C5.30469 22.2962 3.96289 21.3223 5.39844 21.3409C5.39844 21.3409 6.85742 21.4649 7.66016 22.9414C8.94336 25.3359 11.0938 24.6473 11.9316 24.2379C12.0664 23.2453 12.4473 22.5567 12.8691 22.1473C9.59375 21.7627 6.28906 21.2602 6.28906 15.2926C6.28906 13.5867 6.73438 12.7306 7.67188 11.6388C7.51953 11.2356 7.02148 9.57307 7.82422 7.4267C9.04883 7.02348 11.8672 9.10161 11.8672 9.10161C13.0391 8.75422 14.2988 8.57433 15.5469 8.57433C16.7949 8.57433 18.0547 8.75422 19.2266 9.10161C19.2266 9.10161 22.0449 7.01728 23.2695 7.4267C24.0723 9.57927 23.5742 11.2356 23.4219 11.6388C24.3594 12.7368 24.9336 13.5929 24.9336 15.2926C24.9336 21.2788 21.4824 21.7565 18.207 22.1473C18.7461 22.6374 19.2031 23.5679 19.2031 25.0257C19.2031 27.1162 19.1855 29.703 19.1855 30.2117C19.1855 30.6149 19.4551 31.105 20.1992 30.9623C26.0586 28.9028 30.0312 23.0158 30.0312 16.1362C30.0312 7.53216 23.4395 1 15.3125 1ZM6.66406 22.3955C6.58789 22.4575 6.60547 22.6002 6.70508 22.718C6.79883 22.8173 6.93359 22.8607 7.00977 22.7801C7.08594 22.718 7.06836 22.5753 6.96875 22.4575C6.875 22.3582 6.74023 22.3148 6.66406 22.3955ZM6.03125 21.893C5.99023 21.9736 6.04883 22.0729 6.16602 22.1349C6.25977 22.1969 6.37695 22.1783 6.41797 22.0915C6.45898 22.0108 6.40039 21.9116 6.2832 21.8496C6.16602 21.8123 6.07227 21.8309 6.03125 21.893ZM7.92969 24.1014C7.83594 24.182 7.87109 24.3681 8.00586 24.486C8.14062 24.6287 8.31055 24.6473 8.38672 24.548C8.46289 24.4674 8.42773 24.2813 8.31055 24.1634C8.18164 24.0207 8.00586 24.0021 7.92969 24.1014ZM7.26172 23.1895C7.16797 23.2515 7.16797 23.4128 7.26172 23.5555C7.35547 23.6982 7.51367 23.7602 7.58984 23.6982C7.68359 23.6175 7.68359 23.4562 7.58984 23.3136C7.50781 23.1709 7.35547 23.1088 7.26172 23.1895Z" fill="#3A536B"/>
</svg>
